<?xml version="1.0" encoding="iso-8859-1"?>
<!-- Uploaded to: SVG Repo, www.svgrepo.com, Generator: SVG Repo Mixer Tools -->
<svg fill="#000000" version="1.1" id="Layer_1" xmlns="http://www.w3.org/2000/svg" xmlns:xlink="http://www.w3.org/1999/xlink" 
	 viewBox="0 0 496 496" xml:space="preserve">
<g>
	<g>
		<g>
			<path d="M496,352V0H64v152H32v16.808C13.768,172.528,0,188.688,0,208v160c0,22.056,17.944,40,40,40h416c13.232,0,24,10.768,24,24
				v8c0,13.232-10.768,24-24,24H94.528c-3.312-9.288-12.112-16-22.528-16H0v48h72c10.416,0,19.216-6.712,22.528-16H456
				c22.056,0,40-17.944,40-40v-8c0-22.056-17.944-40-40-40H40c-13.232,0-24-10.768-24-24V208c0-10.416,6.712-19.216,16-22.528V200
				h32v152H496z M176,16h304v320H176V16z M80,200v-48V16h80v320H80V200z M32,480H16v-16h16V480z M72,480H48v-16h24
				c4.416,0,8,3.592,8,8C80,476.408,76.416,480,72,480z M48,184v-16h16v16H48z"/>
			<path d="M120,144c-17.648,0-32,14.352-32,32s14.352,32,32,32s32-14.352,32-32S137.648,144,120,144z M120,192
				c-8.824,0-16-7.176-16-16c0-8.824,7.176-16,16-16c8.824,0,16,7.176,16,16C136,184.824,128.824,192,120,192z"/>
			<rect x="96" y="48" width="16" height="64"/>
			<rect x="128" y="48" width="16" height="64"/>
			<rect x="96" y="240" width="16" height="64"/>
			<rect x="128" y="240" width="16" height="64"/>
			<path d="M192,320h264V24H192V320z M208,40h232v264H208V40z"/>
		</g>
	</g>
</g>
</svg>